<mxfile host="Electron" modified="2024-06-21T14:00:51.102Z" agent="Mozilla/5.0 (Windows NT 10.0; Win64; x64) AppleWebKit/537.36 (KHTML, like Gecko) draw.io/24.0.4 Chrome/120.0.6099.109 Electron/28.1.0 Safari/537.36" etag="_ZPFe7L80IsO39eCWrKJ" version="24.0.4" type="device" pages="4">
  <diagram name="问题描述" id="wqaIVa56vnLchRPBPSfe">
    <mxGraphModel dx="1050" dy="629" grid="1" gridSize="10" guides="1" tooltips="1" connect="1" arrows="1" fold="1" page="1" pageScale="1" pageWidth="1169" pageHeight="827" math="0" shadow="0">
      <root>
        <mxCell id="0" />
        <mxCell id="1" parent="0" />
        <mxCell id="PBmuHJVMwE1xskxs3brg-37" value="" style="shape=table;startSize=0;container=1;collapsible=0;childLayout=tableLayout;" parent="1" vertex="1">
          <mxGeometry x="190" y="190" width="240" height="240" as="geometry" />
        </mxCell>
        <mxCell id="PBmuHJVMwE1xskxs3brg-38" value="" style="shape=tableRow;horizontal=0;startSize=0;swimlaneHead=0;swimlaneBody=0;strokeColor=inherit;top=0;left=0;bottom=0;right=0;collapsible=0;dropTarget=0;fillColor=none;points=[[0,0.5],[1,0.5]];portConstraint=eastwest;" parent="PBmuHJVMwE1xskxs3brg-37" vertex="1">
          <mxGeometry width="240" height="40" as="geometry" />
        </mxCell>
        <mxCell id="PBmuHJVMwE1xskxs3brg-39" value="" style="shape=partialRectangle;html=1;whiteSpace=wrap;connectable=0;strokeColor=inherit;overflow=hidden;fillColor=none;top=0;left=0;bottom=0;right=0;pointerEvents=1;" parent="PBmuHJVMwE1xskxs3brg-38" vertex="1">
          <mxGeometry width="60" height="40" as="geometry">
            <mxRectangle width="60" height="40" as="alternateBounds" />
          </mxGeometry>
        </mxCell>
        <mxCell id="PBmuHJVMwE1xskxs3brg-40" value="" style="shape=partialRectangle;html=1;whiteSpace=wrap;connectable=0;strokeColor=inherit;overflow=hidden;fillColor=none;top=0;left=0;bottom=0;right=0;pointerEvents=1;" parent="PBmuHJVMwE1xskxs3brg-38" vertex="1">
          <mxGeometry x="60" width="60" height="40" as="geometry">
            <mxRectangle width="60" height="40" as="alternateBounds" />
          </mxGeometry>
        </mxCell>
        <mxCell id="PBmuHJVMwE1xskxs3brg-41" value="" style="shape=partialRectangle;html=1;whiteSpace=wrap;connectable=0;strokeColor=inherit;overflow=hidden;fillColor=none;top=0;left=0;bottom=0;right=0;pointerEvents=1;" parent="PBmuHJVMwE1xskxs3brg-38" vertex="1">
          <mxGeometry x="120" width="60" height="40" as="geometry">
            <mxRectangle width="60" height="40" as="alternateBounds" />
          </mxGeometry>
        </mxCell>
        <mxCell id="PBmuHJVMwE1xskxs3brg-42" value="" style="shape=partialRectangle;html=1;whiteSpace=wrap;connectable=0;strokeColor=inherit;overflow=hidden;fillColor=none;top=0;left=0;bottom=0;right=0;pointerEvents=1;" parent="PBmuHJVMwE1xskxs3brg-38" vertex="1">
          <mxGeometry x="180" width="60" height="40" as="geometry">
            <mxRectangle width="60" height="40" as="alternateBounds" />
          </mxGeometry>
        </mxCell>
        <mxCell id="PBmuHJVMwE1xskxs3brg-43" value="" style="shape=tableRow;horizontal=0;startSize=0;swimlaneHead=0;swimlaneBody=0;strokeColor=inherit;top=0;left=0;bottom=0;right=0;collapsible=0;dropTarget=0;fillColor=none;points=[[0,0.5],[1,0.5]];portConstraint=eastwest;" parent="PBmuHJVMwE1xskxs3brg-37" vertex="1">
          <mxGeometry y="40" width="240" height="40" as="geometry" />
        </mxCell>
        <mxCell id="PBmuHJVMwE1xskxs3brg-44" value="" style="shape=partialRectangle;html=1;whiteSpace=wrap;connectable=0;strokeColor=inherit;overflow=hidden;fillColor=none;top=0;left=0;bottom=0;right=0;pointerEvents=1;" parent="PBmuHJVMwE1xskxs3brg-43" vertex="1">
          <mxGeometry width="60" height="40" as="geometry">
            <mxRectangle width="60" height="40" as="alternateBounds" />
          </mxGeometry>
        </mxCell>
        <mxCell id="PBmuHJVMwE1xskxs3brg-45" value="" style="shape=partialRectangle;html=1;whiteSpace=wrap;connectable=0;strokeColor=inherit;overflow=hidden;fillColor=none;top=0;left=0;bottom=0;right=0;pointerEvents=1;" parent="PBmuHJVMwE1xskxs3brg-43" vertex="1">
          <mxGeometry x="60" width="60" height="40" as="geometry">
            <mxRectangle width="60" height="40" as="alternateBounds" />
          </mxGeometry>
        </mxCell>
        <mxCell id="PBmuHJVMwE1xskxs3brg-46" value="" style="shape=partialRectangle;html=1;whiteSpace=wrap;connectable=0;strokeColor=inherit;overflow=hidden;fillColor=none;top=0;left=0;bottom=0;right=0;pointerEvents=1;" parent="PBmuHJVMwE1xskxs3brg-43" vertex="1">
          <mxGeometry x="120" width="60" height="40" as="geometry">
            <mxRectangle width="60" height="40" as="alternateBounds" />
          </mxGeometry>
        </mxCell>
        <mxCell id="PBmuHJVMwE1xskxs3brg-47" value="" style="shape=partialRectangle;html=1;whiteSpace=wrap;connectable=0;strokeColor=inherit;overflow=hidden;fillColor=none;top=0;left=0;bottom=0;right=0;pointerEvents=1;" parent="PBmuHJVMwE1xskxs3brg-43" vertex="1">
          <mxGeometry x="180" width="60" height="40" as="geometry">
            <mxRectangle width="60" height="40" as="alternateBounds" />
          </mxGeometry>
        </mxCell>
        <mxCell id="PBmuHJVMwE1xskxs3brg-48" value="" style="shape=tableRow;horizontal=0;startSize=0;swimlaneHead=0;swimlaneBody=0;strokeColor=inherit;top=0;left=0;bottom=0;right=0;collapsible=0;dropTarget=0;fillColor=none;points=[[0,0.5],[1,0.5]];portConstraint=eastwest;" parent="PBmuHJVMwE1xskxs3brg-37" vertex="1">
          <mxGeometry y="80" width="240" height="40" as="geometry" />
        </mxCell>
        <mxCell id="PBmuHJVMwE1xskxs3brg-49" value="" style="shape=partialRectangle;html=1;whiteSpace=wrap;connectable=0;strokeColor=inherit;overflow=hidden;fillColor=none;top=0;left=0;bottom=0;right=0;pointerEvents=1;" parent="PBmuHJVMwE1xskxs3brg-48" vertex="1">
          <mxGeometry width="60" height="40" as="geometry">
            <mxRectangle width="60" height="40" as="alternateBounds" />
          </mxGeometry>
        </mxCell>
        <mxCell id="PBmuHJVMwE1xskxs3brg-50" value="" style="shape=partialRectangle;html=1;whiteSpace=wrap;connectable=0;strokeColor=inherit;overflow=hidden;fillColor=none;top=0;left=0;bottom=0;right=0;pointerEvents=1;" parent="PBmuHJVMwE1xskxs3brg-48" vertex="1">
          <mxGeometry x="60" width="60" height="40" as="geometry">
            <mxRectangle width="60" height="40" as="alternateBounds" />
          </mxGeometry>
        </mxCell>
        <mxCell id="PBmuHJVMwE1xskxs3brg-51" value="" style="shape=partialRectangle;html=1;whiteSpace=wrap;connectable=0;strokeColor=inherit;overflow=hidden;fillColor=none;top=0;left=0;bottom=0;right=0;pointerEvents=1;" parent="PBmuHJVMwE1xskxs3brg-48" vertex="1">
          <mxGeometry x="120" width="60" height="40" as="geometry">
            <mxRectangle width="60" height="40" as="alternateBounds" />
          </mxGeometry>
        </mxCell>
        <mxCell id="PBmuHJVMwE1xskxs3brg-52" value="" style="shape=partialRectangle;html=1;whiteSpace=wrap;connectable=0;strokeColor=inherit;overflow=hidden;fillColor=none;top=0;left=0;bottom=0;right=0;pointerEvents=1;" parent="PBmuHJVMwE1xskxs3brg-48" vertex="1">
          <mxGeometry x="180" width="60" height="40" as="geometry">
            <mxRectangle width="60" height="40" as="alternateBounds" />
          </mxGeometry>
        </mxCell>
        <mxCell id="PBmuHJVMwE1xskxs3brg-53" value="" style="shape=tableRow;horizontal=0;startSize=0;swimlaneHead=0;swimlaneBody=0;strokeColor=inherit;top=0;left=0;bottom=0;right=0;collapsible=0;dropTarget=0;fillColor=none;points=[[0,0.5],[1,0.5]];portConstraint=eastwest;" parent="PBmuHJVMwE1xskxs3brg-37" vertex="1">
          <mxGeometry y="120" width="240" height="40" as="geometry" />
        </mxCell>
        <mxCell id="PBmuHJVMwE1xskxs3brg-54" value="" style="shape=partialRectangle;html=1;whiteSpace=wrap;connectable=0;strokeColor=inherit;overflow=hidden;fillColor=none;top=0;left=0;bottom=0;right=0;pointerEvents=1;" parent="PBmuHJVMwE1xskxs3brg-53" vertex="1">
          <mxGeometry width="60" height="40" as="geometry">
            <mxRectangle width="60" height="40" as="alternateBounds" />
          </mxGeometry>
        </mxCell>
        <mxCell id="PBmuHJVMwE1xskxs3brg-55" value="" style="shape=partialRectangle;html=1;whiteSpace=wrap;connectable=0;strokeColor=inherit;overflow=hidden;fillColor=none;top=0;left=0;bottom=0;right=0;pointerEvents=1;" parent="PBmuHJVMwE1xskxs3brg-53" vertex="1">
          <mxGeometry x="60" width="60" height="40" as="geometry">
            <mxRectangle width="60" height="40" as="alternateBounds" />
          </mxGeometry>
        </mxCell>
        <mxCell id="PBmuHJVMwE1xskxs3brg-56" value="" style="shape=partialRectangle;html=1;whiteSpace=wrap;connectable=0;strokeColor=inherit;overflow=hidden;fillColor=none;top=0;left=0;bottom=0;right=0;pointerEvents=1;" parent="PBmuHJVMwE1xskxs3brg-53" vertex="1">
          <mxGeometry x="120" width="60" height="40" as="geometry">
            <mxRectangle width="60" height="40" as="alternateBounds" />
          </mxGeometry>
        </mxCell>
        <mxCell id="PBmuHJVMwE1xskxs3brg-57" value="" style="shape=partialRectangle;html=1;whiteSpace=wrap;connectable=0;strokeColor=inherit;overflow=hidden;fillColor=none;top=0;left=0;bottom=0;right=0;pointerEvents=1;" parent="PBmuHJVMwE1xskxs3brg-53" vertex="1">
          <mxGeometry x="180" width="60" height="40" as="geometry">
            <mxRectangle width="60" height="40" as="alternateBounds" />
          </mxGeometry>
        </mxCell>
        <mxCell id="PBmuHJVMwE1xskxs3brg-58" value="" style="shape=tableRow;horizontal=0;startSize=0;swimlaneHead=0;swimlaneBody=0;strokeColor=inherit;top=0;left=0;bottom=0;right=0;collapsible=0;dropTarget=0;fillColor=none;points=[[0,0.5],[1,0.5]];portConstraint=eastwest;" parent="PBmuHJVMwE1xskxs3brg-37" vertex="1">
          <mxGeometry y="160" width="240" height="40" as="geometry" />
        </mxCell>
        <mxCell id="PBmuHJVMwE1xskxs3brg-59" value="" style="shape=partialRectangle;html=1;whiteSpace=wrap;connectable=0;strokeColor=inherit;overflow=hidden;fillColor=none;top=0;left=0;bottom=0;right=0;pointerEvents=1;" parent="PBmuHJVMwE1xskxs3brg-58" vertex="1">
          <mxGeometry width="60" height="40" as="geometry">
            <mxRectangle width="60" height="40" as="alternateBounds" />
          </mxGeometry>
        </mxCell>
        <mxCell id="PBmuHJVMwE1xskxs3brg-60" value="" style="shape=partialRectangle;html=1;whiteSpace=wrap;connectable=0;strokeColor=inherit;overflow=hidden;fillColor=none;top=0;left=0;bottom=0;right=0;pointerEvents=1;" parent="PBmuHJVMwE1xskxs3brg-58" vertex="1">
          <mxGeometry x="60" width="60" height="40" as="geometry">
            <mxRectangle width="60" height="40" as="alternateBounds" />
          </mxGeometry>
        </mxCell>
        <mxCell id="PBmuHJVMwE1xskxs3brg-61" value="" style="shape=partialRectangle;html=1;whiteSpace=wrap;connectable=0;strokeColor=inherit;overflow=hidden;fillColor=none;top=0;left=0;bottom=0;right=0;pointerEvents=1;" parent="PBmuHJVMwE1xskxs3brg-58" vertex="1">
          <mxGeometry x="120" width="60" height="40" as="geometry">
            <mxRectangle width="60" height="40" as="alternateBounds" />
          </mxGeometry>
        </mxCell>
        <mxCell id="PBmuHJVMwE1xskxs3brg-62" value="" style="shape=partialRectangle;html=1;whiteSpace=wrap;connectable=0;strokeColor=inherit;overflow=hidden;fillColor=none;top=0;left=0;bottom=0;right=0;pointerEvents=1;" parent="PBmuHJVMwE1xskxs3brg-58" vertex="1">
          <mxGeometry x="180" width="60" height="40" as="geometry">
            <mxRectangle width="60" height="40" as="alternateBounds" />
          </mxGeometry>
        </mxCell>
        <mxCell id="PBmuHJVMwE1xskxs3brg-63" value="" style="shape=tableRow;horizontal=0;startSize=0;swimlaneHead=0;swimlaneBody=0;strokeColor=inherit;top=0;left=0;bottom=0;right=0;collapsible=0;dropTarget=0;fillColor=none;points=[[0,0.5],[1,0.5]];portConstraint=eastwest;" parent="PBmuHJVMwE1xskxs3brg-37" vertex="1">
          <mxGeometry y="200" width="240" height="40" as="geometry" />
        </mxCell>
        <mxCell id="PBmuHJVMwE1xskxs3brg-64" value="" style="shape=partialRectangle;html=1;whiteSpace=wrap;connectable=0;strokeColor=inherit;overflow=hidden;fillColor=none;top=0;left=0;bottom=0;right=0;pointerEvents=1;" parent="PBmuHJVMwE1xskxs3brg-63" vertex="1">
          <mxGeometry width="60" height="40" as="geometry">
            <mxRectangle width="60" height="40" as="alternateBounds" />
          </mxGeometry>
        </mxCell>
        <mxCell id="PBmuHJVMwE1xskxs3brg-65" value="" style="shape=partialRectangle;html=1;whiteSpace=wrap;connectable=0;strokeColor=inherit;overflow=hidden;fillColor=none;top=0;left=0;bottom=0;right=0;pointerEvents=1;" parent="PBmuHJVMwE1xskxs3brg-63" vertex="1">
          <mxGeometry x="60" width="60" height="40" as="geometry">
            <mxRectangle width="60" height="40" as="alternateBounds" />
          </mxGeometry>
        </mxCell>
        <mxCell id="PBmuHJVMwE1xskxs3brg-66" value="" style="shape=partialRectangle;html=1;whiteSpace=wrap;connectable=0;strokeColor=inherit;overflow=hidden;fillColor=none;top=0;left=0;bottom=0;right=0;pointerEvents=1;" parent="PBmuHJVMwE1xskxs3brg-63" vertex="1">
          <mxGeometry x="120" width="60" height="40" as="geometry">
            <mxRectangle width="60" height="40" as="alternateBounds" />
          </mxGeometry>
        </mxCell>
        <mxCell id="PBmuHJVMwE1xskxs3brg-67" value="" style="shape=partialRectangle;html=1;whiteSpace=wrap;connectable=0;strokeColor=inherit;overflow=hidden;fillColor=none;top=0;left=0;bottom=0;right=0;pointerEvents=1;" parent="PBmuHJVMwE1xskxs3brg-63" vertex="1">
          <mxGeometry x="180" width="60" height="40" as="geometry">
            <mxRectangle width="60" height="40" as="alternateBounds" />
          </mxGeometry>
        </mxCell>
        <mxCell id="PBmuHJVMwE1xskxs3brg-68" value="" style="shape=table;startSize=0;container=1;collapsible=0;childLayout=tableLayout;" parent="1" vertex="1">
          <mxGeometry x="470" y="190" width="180" height="160" as="geometry" />
        </mxCell>
        <mxCell id="PBmuHJVMwE1xskxs3brg-69" value="" style="shape=tableRow;horizontal=0;startSize=0;swimlaneHead=0;swimlaneBody=0;strokeColor=inherit;top=0;left=0;bottom=0;right=0;collapsible=0;dropTarget=0;fillColor=none;points=[[0,0.5],[1,0.5]];portConstraint=eastwest;" parent="PBmuHJVMwE1xskxs3brg-68" vertex="1">
          <mxGeometry width="180" height="40" as="geometry" />
        </mxCell>
        <mxCell id="PBmuHJVMwE1xskxs3brg-70" value="" style="shape=partialRectangle;html=1;whiteSpace=wrap;connectable=0;strokeColor=inherit;overflow=hidden;fillColor=none;top=0;left=0;bottom=0;right=0;pointerEvents=1;" parent="PBmuHJVMwE1xskxs3brg-69" vertex="1">
          <mxGeometry width="60" height="40" as="geometry">
            <mxRectangle width="60" height="40" as="alternateBounds" />
          </mxGeometry>
        </mxCell>
        <mxCell id="PBmuHJVMwE1xskxs3brg-71" value="" style="shape=partialRectangle;html=1;whiteSpace=wrap;connectable=0;strokeColor=inherit;overflow=hidden;fillColor=none;top=0;left=0;bottom=0;right=0;pointerEvents=1;" parent="PBmuHJVMwE1xskxs3brg-69" vertex="1">
          <mxGeometry x="60" width="60" height="40" as="geometry">
            <mxRectangle width="60" height="40" as="alternateBounds" />
          </mxGeometry>
        </mxCell>
        <mxCell id="PBmuHJVMwE1xskxs3brg-72" value="" style="shape=partialRectangle;html=1;whiteSpace=wrap;connectable=0;strokeColor=inherit;overflow=hidden;fillColor=none;top=0;left=0;bottom=0;right=0;pointerEvents=1;" parent="PBmuHJVMwE1xskxs3brg-69" vertex="1">
          <mxGeometry x="120" width="60" height="40" as="geometry">
            <mxRectangle width="60" height="40" as="alternateBounds" />
          </mxGeometry>
        </mxCell>
        <mxCell id="PBmuHJVMwE1xskxs3brg-73" value="" style="shape=tableRow;horizontal=0;startSize=0;swimlaneHead=0;swimlaneBody=0;strokeColor=inherit;top=0;left=0;bottom=0;right=0;collapsible=0;dropTarget=0;fillColor=none;points=[[0,0.5],[1,0.5]];portConstraint=eastwest;" parent="PBmuHJVMwE1xskxs3brg-68" vertex="1">
          <mxGeometry y="40" width="180" height="40" as="geometry" />
        </mxCell>
        <mxCell id="PBmuHJVMwE1xskxs3brg-74" value="" style="shape=partialRectangle;html=1;whiteSpace=wrap;connectable=0;strokeColor=inherit;overflow=hidden;fillColor=none;top=0;left=0;bottom=0;right=0;pointerEvents=1;" parent="PBmuHJVMwE1xskxs3brg-73" vertex="1">
          <mxGeometry width="60" height="40" as="geometry">
            <mxRectangle width="60" height="40" as="alternateBounds" />
          </mxGeometry>
        </mxCell>
        <mxCell id="PBmuHJVMwE1xskxs3brg-75" value="" style="shape=partialRectangle;html=1;whiteSpace=wrap;connectable=0;strokeColor=inherit;overflow=hidden;fillColor=none;top=0;left=0;bottom=0;right=0;pointerEvents=1;" parent="PBmuHJVMwE1xskxs3brg-73" vertex="1">
          <mxGeometry x="60" width="60" height="40" as="geometry">
            <mxRectangle width="60" height="40" as="alternateBounds" />
          </mxGeometry>
        </mxCell>
        <mxCell id="PBmuHJVMwE1xskxs3brg-76" value="" style="shape=partialRectangle;html=1;whiteSpace=wrap;connectable=0;strokeColor=inherit;overflow=hidden;fillColor=none;top=0;left=0;bottom=0;right=0;pointerEvents=1;" parent="PBmuHJVMwE1xskxs3brg-73" vertex="1">
          <mxGeometry x="120" width="60" height="40" as="geometry">
            <mxRectangle width="60" height="40" as="alternateBounds" />
          </mxGeometry>
        </mxCell>
        <mxCell id="PBmuHJVMwE1xskxs3brg-77" value="" style="shape=tableRow;horizontal=0;startSize=0;swimlaneHead=0;swimlaneBody=0;strokeColor=inherit;top=0;left=0;bottom=0;right=0;collapsible=0;dropTarget=0;fillColor=none;points=[[0,0.5],[1,0.5]];portConstraint=eastwest;" parent="PBmuHJVMwE1xskxs3brg-68" vertex="1">
          <mxGeometry y="80" width="180" height="40" as="geometry" />
        </mxCell>
        <mxCell id="PBmuHJVMwE1xskxs3brg-78" value="" style="shape=partialRectangle;html=1;whiteSpace=wrap;connectable=0;strokeColor=inherit;overflow=hidden;fillColor=none;top=0;left=0;bottom=0;right=0;pointerEvents=1;" parent="PBmuHJVMwE1xskxs3brg-77" vertex="1">
          <mxGeometry width="60" height="40" as="geometry">
            <mxRectangle width="60" height="40" as="alternateBounds" />
          </mxGeometry>
        </mxCell>
        <mxCell id="PBmuHJVMwE1xskxs3brg-79" value="" style="shape=partialRectangle;html=1;whiteSpace=wrap;connectable=0;strokeColor=inherit;overflow=hidden;fillColor=none;top=0;left=0;bottom=0;right=0;pointerEvents=1;" parent="PBmuHJVMwE1xskxs3brg-77" vertex="1">
          <mxGeometry x="60" width="60" height="40" as="geometry">
            <mxRectangle width="60" height="40" as="alternateBounds" />
          </mxGeometry>
        </mxCell>
        <mxCell id="PBmuHJVMwE1xskxs3brg-80" value="" style="shape=partialRectangle;html=1;whiteSpace=wrap;connectable=0;strokeColor=inherit;overflow=hidden;fillColor=none;top=0;left=0;bottom=0;right=0;pointerEvents=1;" parent="PBmuHJVMwE1xskxs3brg-77" vertex="1">
          <mxGeometry x="120" width="60" height="40" as="geometry">
            <mxRectangle width="60" height="40" as="alternateBounds" />
          </mxGeometry>
        </mxCell>
        <mxCell id="PBmuHJVMwE1xskxs3brg-81" value="" style="shape=tableRow;horizontal=0;startSize=0;swimlaneHead=0;swimlaneBody=0;strokeColor=inherit;top=0;left=0;bottom=0;right=0;collapsible=0;dropTarget=0;fillColor=none;points=[[0,0.5],[1,0.5]];portConstraint=eastwest;" parent="PBmuHJVMwE1xskxs3brg-68" vertex="1">
          <mxGeometry y="120" width="180" height="40" as="geometry" />
        </mxCell>
        <mxCell id="PBmuHJVMwE1xskxs3brg-82" value="" style="shape=partialRectangle;html=1;whiteSpace=wrap;connectable=0;strokeColor=inherit;overflow=hidden;fillColor=none;top=0;left=0;bottom=0;right=0;pointerEvents=1;" parent="PBmuHJVMwE1xskxs3brg-81" vertex="1">
          <mxGeometry width="60" height="40" as="geometry">
            <mxRectangle width="60" height="40" as="alternateBounds" />
          </mxGeometry>
        </mxCell>
        <mxCell id="PBmuHJVMwE1xskxs3brg-83" value="" style="shape=partialRectangle;html=1;whiteSpace=wrap;connectable=0;strokeColor=inherit;overflow=hidden;fillColor=none;top=0;left=0;bottom=0;right=0;pointerEvents=1;" parent="PBmuHJVMwE1xskxs3brg-81" vertex="1">
          <mxGeometry x="60" width="60" height="40" as="geometry">
            <mxRectangle width="60" height="40" as="alternateBounds" />
          </mxGeometry>
        </mxCell>
        <mxCell id="PBmuHJVMwE1xskxs3brg-84" value="" style="shape=partialRectangle;html=1;whiteSpace=wrap;connectable=0;strokeColor=inherit;overflow=hidden;fillColor=none;top=0;left=0;bottom=0;right=0;pointerEvents=1;" parent="PBmuHJVMwE1xskxs3brg-81" vertex="1">
          <mxGeometry x="120" width="60" height="40" as="geometry">
            <mxRectangle width="60" height="40" as="alternateBounds" />
          </mxGeometry>
        </mxCell>
        <mxCell id="PBmuHJVMwE1xskxs3brg-85" value="A" style="text;strokeColor=none;align=center;fillColor=none;html=1;verticalAlign=middle;whiteSpace=wrap;rounded=0;" parent="1" vertex="1">
          <mxGeometry x="290" y="140" width="60" height="30" as="geometry" />
        </mxCell>
        <mxCell id="PBmuHJVMwE1xskxs3brg-86" value="B" style="text;strokeColor=none;align=center;fillColor=none;html=1;verticalAlign=middle;whiteSpace=wrap;rounded=0;" parent="1" vertex="1">
          <mxGeometry x="540" y="140" width="60" height="30" as="geometry" />
        </mxCell>
        <mxCell id="PBmuHJVMwE1xskxs3brg-87" value="" style="endArrow=none;dashed=1;html=1;strokeWidth=2;rounded=0;strokeColor=#fb1313;" parent="1" edge="1">
          <mxGeometry width="50" height="50" relative="1" as="geometry">
            <mxPoint x="100" y="350" as="sourcePoint" />
            <mxPoint x="860" y="350" as="targetPoint" />
          </mxGeometry>
        </mxCell>
        <mxCell id="PBmuHJVMwE1xskxs3brg-154" value="" style="shape=table;startSize=0;container=1;collapsible=0;childLayout=tableLayout;fillColor=#fff2cc;strokeColor=#d6b656;" parent="1" vertex="1">
          <mxGeometry x="530" y="350" width="60" height="80" as="geometry" />
        </mxCell>
        <mxCell id="PBmuHJVMwE1xskxs3brg-155" value="" style="shape=tableRow;horizontal=0;startSize=0;swimlaneHead=0;swimlaneBody=0;strokeColor=inherit;top=0;left=0;bottom=0;right=0;collapsible=0;dropTarget=0;fillColor=none;points=[[0,0.5],[1,0.5]];portConstraint=eastwest;" parent="PBmuHJVMwE1xskxs3brg-154" vertex="1">
          <mxGeometry width="60" height="40" as="geometry" />
        </mxCell>
        <mxCell id="PBmuHJVMwE1xskxs3brg-156" value="" style="shape=partialRectangle;html=1;whiteSpace=wrap;connectable=0;strokeColor=inherit;overflow=hidden;fillColor=none;top=0;left=0;bottom=0;right=0;pointerEvents=1;" parent="PBmuHJVMwE1xskxs3brg-155" vertex="1">
          <mxGeometry width="60" height="40" as="geometry">
            <mxRectangle width="60" height="40" as="alternateBounds" />
          </mxGeometry>
        </mxCell>
        <mxCell id="PBmuHJVMwE1xskxs3brg-157" value="" style="shape=tableRow;horizontal=0;startSize=0;swimlaneHead=0;swimlaneBody=0;strokeColor=inherit;top=0;left=0;bottom=0;right=0;collapsible=0;dropTarget=0;fillColor=none;points=[[0,0.5],[1,0.5]];portConstraint=eastwest;" parent="PBmuHJVMwE1xskxs3brg-154" vertex="1">
          <mxGeometry y="40" width="60" height="40" as="geometry" />
        </mxCell>
        <mxCell id="PBmuHJVMwE1xskxs3brg-158" value="" style="shape=partialRectangle;html=1;whiteSpace=wrap;connectable=0;strokeColor=inherit;overflow=hidden;fillColor=none;top=0;left=0;bottom=0;right=0;pointerEvents=1;" parent="PBmuHJVMwE1xskxs3brg-157" vertex="1">
          <mxGeometry width="60" height="40" as="geometry">
            <mxRectangle width="60" height="40" as="alternateBounds" />
          </mxGeometry>
        </mxCell>
        <mxCell id="PBmuHJVMwE1xskxs3brg-159" value="" style="shape=table;startSize=0;container=1;collapsible=0;childLayout=tableLayout;fillColor=#fff2cc;strokeColor=#d6b656;" parent="1" vertex="1">
          <mxGeometry x="590" y="350" width="60" height="80" as="geometry" />
        </mxCell>
        <mxCell id="PBmuHJVMwE1xskxs3brg-160" value="" style="shape=tableRow;horizontal=0;startSize=0;swimlaneHead=0;swimlaneBody=0;strokeColor=inherit;top=0;left=0;bottom=0;right=0;collapsible=0;dropTarget=0;fillColor=none;points=[[0,0.5],[1,0.5]];portConstraint=eastwest;" parent="PBmuHJVMwE1xskxs3brg-159" vertex="1">
          <mxGeometry width="60" height="40" as="geometry" />
        </mxCell>
        <mxCell id="PBmuHJVMwE1xskxs3brg-161" value="" style="shape=partialRectangle;html=1;whiteSpace=wrap;connectable=0;strokeColor=inherit;overflow=hidden;fillColor=none;top=0;left=0;bottom=0;right=0;pointerEvents=1;" parent="PBmuHJVMwE1xskxs3brg-160" vertex="1">
          <mxGeometry width="60" height="40" as="geometry">
            <mxRectangle width="60" height="40" as="alternateBounds" />
          </mxGeometry>
        </mxCell>
        <mxCell id="PBmuHJVMwE1xskxs3brg-162" value="" style="shape=tableRow;horizontal=0;startSize=0;swimlaneHead=0;swimlaneBody=0;strokeColor=inherit;top=0;left=0;bottom=0;right=0;collapsible=0;dropTarget=0;fillColor=none;points=[[0,0.5],[1,0.5]];portConstraint=eastwest;" parent="PBmuHJVMwE1xskxs3brg-159" vertex="1">
          <mxGeometry y="40" width="60" height="40" as="geometry" />
        </mxCell>
        <mxCell id="PBmuHJVMwE1xskxs3brg-163" value="" style="shape=partialRectangle;html=1;whiteSpace=wrap;connectable=0;strokeColor=inherit;overflow=hidden;fillColor=none;top=0;left=0;bottom=0;right=0;pointerEvents=1;" parent="PBmuHJVMwE1xskxs3brg-162" vertex="1">
          <mxGeometry width="60" height="40" as="geometry">
            <mxRectangle width="60" height="40" as="alternateBounds" />
          </mxGeometry>
        </mxCell>
        <mxCell id="PBmuHJVMwE1xskxs3brg-164" value="" style="shape=table;startSize=0;container=1;collapsible=0;childLayout=tableLayout;dashed=1;dashPattern=8 8;" parent="1" vertex="1">
          <mxGeometry x="470" y="350" width="60" height="80" as="geometry" />
        </mxCell>
        <mxCell id="PBmuHJVMwE1xskxs3brg-165" value="" style="shape=tableRow;horizontal=0;startSize=0;swimlaneHead=0;swimlaneBody=0;strokeColor=inherit;top=0;left=0;bottom=0;right=0;collapsible=0;dropTarget=0;fillColor=none;points=[[0,0.5],[1,0.5]];portConstraint=eastwest;" parent="PBmuHJVMwE1xskxs3brg-164" vertex="1">
          <mxGeometry width="60" height="40" as="geometry" />
        </mxCell>
        <mxCell id="PBmuHJVMwE1xskxs3brg-166" value="" style="shape=partialRectangle;html=1;whiteSpace=wrap;connectable=0;strokeColor=inherit;overflow=hidden;fillColor=none;top=0;left=0;bottom=0;right=0;pointerEvents=1;" parent="PBmuHJVMwE1xskxs3brg-165" vertex="1">
          <mxGeometry width="60" height="40" as="geometry">
            <mxRectangle width="60" height="40" as="alternateBounds" />
          </mxGeometry>
        </mxCell>
        <mxCell id="PBmuHJVMwE1xskxs3brg-167" value="" style="shape=tableRow;horizontal=0;startSize=0;swimlaneHead=0;swimlaneBody=0;strokeColor=inherit;top=0;left=0;bottom=0;right=0;collapsible=0;dropTarget=0;fillColor=none;points=[[0,0.5],[1,0.5]];portConstraint=eastwest;" parent="PBmuHJVMwE1xskxs3brg-164" vertex="1">
          <mxGeometry y="40" width="60" height="40" as="geometry" />
        </mxCell>
        <mxCell id="PBmuHJVMwE1xskxs3brg-168" value="" style="shape=partialRectangle;html=1;whiteSpace=wrap;connectable=0;strokeColor=inherit;overflow=hidden;fillColor=none;top=0;left=0;bottom=0;right=0;pointerEvents=1;" parent="PBmuHJVMwE1xskxs3brg-167" vertex="1">
          <mxGeometry width="60" height="40" as="geometry">
            <mxRectangle width="60" height="40" as="alternateBounds" />
          </mxGeometry>
        </mxCell>
        <mxCell id="PBmuHJVMwE1xskxs3brg-169" value="" style="endArrow=classic;html=1;rounded=0;" parent="1" edge="1">
          <mxGeometry width="50" height="50" relative="1" as="geometry">
            <mxPoint x="640" y="510" as="sourcePoint" />
            <mxPoint x="610" y="440" as="targetPoint" />
          </mxGeometry>
        </mxCell>
        <mxCell id="PBmuHJVMwE1xskxs3brg-170" value="根据A的m个列，采用预测模型（VFPU），生成B的k个列：&lt;div&gt;1. 循环生成&lt;/div&gt;&lt;div&gt;2. 一次性生成&lt;/div&gt;" style="text;strokeColor=#b85450;align=left;fillColor=#f8cecc;html=1;verticalAlign=middle;whiteSpace=wrap;rounded=0;fontSize=16;" parent="1" vertex="1">
          <mxGeometry x="610" y="510" width="350" height="100" as="geometry" />
        </mxCell>
        <mxCell id="PBmuHJVMwE1xskxs3brg-171" value="采用填补方法进行填补" style="text;strokeColor=#82b366;align=left;fillColor=#d5e8d4;html=1;verticalAlign=middle;whiteSpace=wrap;rounded=0;fontSize=16;" parent="1" vertex="1">
          <mxGeometry x="200" y="510" width="350" height="100" as="geometry" />
        </mxCell>
        <mxCell id="PBmuHJVMwE1xskxs3brg-172" value="" style="endArrow=classic;html=1;rounded=0;" parent="1" edge="1">
          <mxGeometry width="50" height="50" relative="1" as="geometry">
            <mxPoint x="370" y="510" as="sourcePoint" />
            <mxPoint x="480" y="440" as="targetPoint" />
          </mxGeometry>
        </mxCell>
      </root>
    </mxGraphModel>
  </diagram>
  <diagram id="kNlbvNzl6yysiBKrJwGA" name="CTGAN + GAIN 实验设计">
    <mxGraphModel dx="2140" dy="786" grid="1" gridSize="10" guides="1" tooltips="1" connect="1" arrows="1" fold="1" page="1" pageScale="1" pageWidth="827" pageHeight="1169" math="0" shadow="0">
      <root>
        <mxCell id="0" />
        <mxCell id="1" parent="0" />
        <mxCell id="-30cllrDM8pADMwWrVAT-1" value="" style="rounded=0;whiteSpace=wrap;html=1;" parent="1" vertex="1">
          <mxGeometry x="60" y="170" width="130" height="150" as="geometry" />
        </mxCell>
        <mxCell id="-30cllrDM8pADMwWrVAT-2" value="" style="shape=flexArrow;endArrow=classic;html=1;rounded=0;" parent="1" edge="1">
          <mxGeometry width="50" height="50" relative="1" as="geometry">
            <mxPoint x="210" y="244.5" as="sourcePoint" />
            <mxPoint x="360" y="245" as="targetPoint" />
          </mxGeometry>
        </mxCell>
        <mxCell id="-30cllrDM8pADMwWrVAT-3" value="data_loader2" style="edgeLabel;html=1;align=center;verticalAlign=middle;resizable=0;points=[];fontSize=13;" parent="-30cllrDM8pADMwWrVAT-2" vertex="1" connectable="0">
          <mxGeometry x="-0.044" y="-1" relative="1" as="geometry">
            <mxPoint y="1" as="offset" />
          </mxGeometry>
        </mxCell>
        <mxCell id="-30cllrDM8pADMwWrVAT-4" value="" style="rounded=0;whiteSpace=wrap;html=1;" parent="1" vertex="1">
          <mxGeometry x="400" y="170" width="130" height="90" as="geometry" />
        </mxCell>
        <mxCell id="-30cllrDM8pADMwWrVAT-40" style="edgeStyle=none;rounded=0;orthogonalLoop=1;jettySize=auto;html=1;exitX=0.25;exitY=0;exitDx=0;exitDy=0;" parent="1" source="-30cllrDM8pADMwWrVAT-5" edge="1">
          <mxGeometry relative="1" as="geometry">
            <mxPoint x="290" y="940" as="targetPoint" />
          </mxGeometry>
        </mxCell>
        <mxCell id="-30cllrDM8pADMwWrVAT-5" value="" style="rounded=0;whiteSpace=wrap;html=1;dashed=1;dashPattern=8 8;" parent="1" vertex="1">
          <mxGeometry x="400" y="260" width="130" height="60" as="geometry" />
        </mxCell>
        <mxCell id="-30cllrDM8pADMwWrVAT-6" value="complete_data_B" style="text;whiteSpace=wrap;fontSize=14;" parent="1" vertex="1">
          <mxGeometry x="70" y="130" width="130" height="30" as="geometry" />
        </mxCell>
        <mxCell id="-30cllrDM8pADMwWrVAT-7" value="incomplete_data_B" style="text;whiteSpace=wrap;fontSize=14;" parent="1" vertex="1">
          <mxGeometry x="400" y="130" width="140" height="30" as="geometry" />
        </mxCell>
        <mxCell id="-30cllrDM8pADMwWrVAT-8" value="缺失数据" style="text;whiteSpace=wrap;fontSize=14;" parent="1" vertex="1">
          <mxGeometry x="560" y="277.5" width="70" height="25" as="geometry" />
        </mxCell>
        <mxCell id="-30cllrDM8pADMwWrVAT-9" style="edgeStyle=orthogonalEdgeStyle;rounded=0;orthogonalLoop=1;jettySize=auto;html=1;exitX=0.5;exitY=1;exitDx=0;exitDy=0;" parent="1" source="-30cllrDM8pADMwWrVAT-8" target="-30cllrDM8pADMwWrVAT-8" edge="1">
          <mxGeometry relative="1" as="geometry" />
        </mxCell>
        <mxCell id="-30cllrDM8pADMwWrVAT-11" value="" style="rounded=0;whiteSpace=wrap;html=1;fillColor=#ffe6cc;strokeColor=#d79b00;" parent="1" vertex="1">
          <mxGeometry x="414" y="170" width="20" height="90" as="geometry" />
        </mxCell>
        <mxCell id="-30cllrDM8pADMwWrVAT-12" value="" style="rounded=0;whiteSpace=wrap;html=1;fillColor=#ffe6cc;strokeColor=#d79b00;" parent="1" vertex="1">
          <mxGeometry x="455" y="170" width="20" height="90" as="geometry" />
        </mxCell>
        <mxCell id="-30cllrDM8pADMwWrVAT-13" value="" style="rounded=0;whiteSpace=wrap;html=1;fillColor=#ffe6cc;strokeColor=#d79b00;" parent="1" vertex="1">
          <mxGeometry x="475" y="170" width="20" height="90" as="geometry" />
        </mxCell>
        <mxCell id="-30cllrDM8pADMwWrVAT-14" value="" style="shape=flexArrow;endArrow=classic;html=1;rounded=0;" parent="1" edge="1">
          <mxGeometry width="50" height="50" relative="1" as="geometry">
            <mxPoint x="550" y="214.5" as="sourcePoint" />
            <mxPoint x="850" y="215" as="targetPoint" />
          </mxGeometry>
        </mxCell>
        <mxCell id="-30cllrDM8pADMwWrVAT-15" value="ctgan.fit(incomplete_data_B,discrete_columns)" style="text;whiteSpace=wrap;fontSize=14;" parent="1" vertex="1">
          <mxGeometry x="550" y="170" width="320" height="40" as="geometry" />
        </mxCell>
        <mxCell id="-30cllrDM8pADMwWrVAT-18" style="edgeStyle=none;rounded=0;orthogonalLoop=1;jettySize=auto;html=1;exitX=0.5;exitY=0;exitDx=0;exitDy=0;" parent="1" source="-30cllrDM8pADMwWrVAT-16" target="-30cllrDM8pADMwWrVAT-4" edge="1">
          <mxGeometry relative="1" as="geometry" />
        </mxCell>
        <mxCell id="-30cllrDM8pADMwWrVAT-16" value="&lt;span style=&quot;font-size: 14px; text-align: left;&quot;&gt;discrete_columns&lt;/span&gt;" style="text;strokeColor=none;align=center;fillColor=none;html=1;verticalAlign=middle;whiteSpace=wrap;rounded=0;" parent="1" vertex="1">
          <mxGeometry x="220" y="380" width="150" height="30" as="geometry" />
        </mxCell>
        <mxCell id="-30cllrDM8pADMwWrVAT-19" value="CTGAN MODEL" style="sketch=0;outlineConnect=0;fontColor=#232F3E;gradientColor=none;fillColor=#01A88D;strokeColor=none;dashed=0;verticalLabelPosition=bottom;verticalAlign=top;align=center;html=1;fontSize=12;fontStyle=0;aspect=fixed;pointerEvents=1;shape=mxgraph.aws4.sagemaker_model;" parent="1" vertex="1">
          <mxGeometry x="860" y="176" width="78" height="78" as="geometry" />
        </mxCell>
        <mxCell id="-30cllrDM8pADMwWrVAT-20" value="" style="shape=flexArrow;endArrow=classic;html=1;rounded=0;" parent="1" edge="1">
          <mxGeometry width="50" height="50" relative="1" as="geometry">
            <mxPoint x="898.5" y="310" as="sourcePoint" />
            <mxPoint x="900" y="460" as="targetPoint" />
          </mxGeometry>
        </mxCell>
        <mxCell id="-30cllrDM8pADMwWrVAT-21" value="CTGAN 生成数据" style="text;whiteSpace=wrap;fontSize=15;" parent="1" vertex="1">
          <mxGeometry x="750" y="370" width="140" height="40" as="geometry" />
        </mxCell>
        <mxCell id="-30cllrDM8pADMwWrVAT-22" value="" style="rounded=0;whiteSpace=wrap;html=1;strokeColor=#FF8000;" parent="1" vertex="1">
          <mxGeometry x="834" y="470" width="130" height="150" as="geometry" />
        </mxCell>
        <mxCell id="-30cllrDM8pADMwWrVAT-23" value="长度和完整数据一样长" style="text;whiteSpace=wrap;fontSize=15;" parent="1" vertex="1">
          <mxGeometry x="920" y="360" width="80" height="40" as="geometry" />
        </mxCell>
        <mxCell id="-30cllrDM8pADMwWrVAT-24" value="" style="endArrow=classic;html=1;rounded=0;" parent="1" edge="1">
          <mxGeometry width="50" height="50" relative="1" as="geometry">
            <mxPoint x="820" y="560" as="sourcePoint" />
            <mxPoint x="580" y="560" as="targetPoint" />
          </mxGeometry>
        </mxCell>
        <mxCell id="-30cllrDM8pADMwWrVAT-25" value="全新的数据" style="text;whiteSpace=wrap;fontSize=15;" parent="1" vertex="1">
          <mxGeometry x="858" y="640" width="80" height="40" as="geometry" />
        </mxCell>
        <mxCell id="-30cllrDM8pADMwWrVAT-26" value="生成的数据中保留相关性强的几列的数据，丢弃其他数据" style="text;whiteSpace=wrap;fontSize=15;" parent="1" vertex="1">
          <mxGeometry x="580" y="510" width="230" height="20" as="geometry" />
        </mxCell>
        <mxCell id="-30cllrDM8pADMwWrVAT-27" value="" style="rounded=0;whiteSpace=wrap;html=1;strokeColor=#FF8000;" parent="1" vertex="1">
          <mxGeometry x="440" y="470" width="130" height="150" as="geometry" />
        </mxCell>
        <mxCell id="-30cllrDM8pADMwWrVAT-28" value="" style="rounded=0;whiteSpace=wrap;html=1;strokeColor=#82b366;fillColor=#d5e8d4;" parent="1" vertex="1">
          <mxGeometry x="520" y="470" width="20" height="150" as="geometry" />
        </mxCell>
        <mxCell id="-30cllrDM8pADMwWrVAT-50" style="edgeStyle=none;rounded=0;orthogonalLoop=1;jettySize=auto;html=1;exitX=0.5;exitY=1;exitDx=0;exitDy=0;" parent="1" source="-30cllrDM8pADMwWrVAT-29" edge="1">
          <mxGeometry relative="1" as="geometry">
            <mxPoint x="610" y="1100" as="targetPoint" />
          </mxGeometry>
        </mxCell>
        <mxCell id="-30cllrDM8pADMwWrVAT-29" value="" style="rounded=0;whiteSpace=wrap;html=1;strokeColor=#82b366;fillColor=#d5e8d4;" parent="1" vertex="1">
          <mxGeometry x="490" y="470" width="20" height="150" as="geometry" />
        </mxCell>
        <mxCell id="-30cllrDM8pADMwWrVAT-30" value="" style="endArrow=classic;html=1;rounded=0;" parent="1" edge="1">
          <mxGeometry width="50" height="50" relative="1" as="geometry">
            <mxPoint x="470" y="680" as="sourcePoint" />
            <mxPoint x="470" y="630" as="targetPoint" />
          </mxGeometry>
        </mxCell>
        <mxCell id="-30cllrDM8pADMwWrVAT-31" value="NAN" style="text;whiteSpace=wrap;fontSize=15;" parent="1" vertex="1">
          <mxGeometry x="449" y="680" width="46" height="30" as="geometry" />
        </mxCell>
        <mxCell id="-30cllrDM8pADMwWrVAT-32" value="" style="endArrow=classic;html=1;rounded=0;" parent="1" edge="1">
          <mxGeometry width="50" height="50" relative="1" as="geometry">
            <mxPoint x="531" y="680" as="sourcePoint" />
            <mxPoint x="531" y="630" as="targetPoint" />
          </mxGeometry>
        </mxCell>
        <mxCell id="-30cllrDM8pADMwWrVAT-33" value="相关性强的列保留" style="text;whiteSpace=wrap;fontSize=15;" parent="1" vertex="1">
          <mxGeometry x="510" y="680" width="100" height="30" as="geometry" />
        </mxCell>
        <mxCell id="-30cllrDM8pADMwWrVAT-36" style="edgeStyle=none;rounded=0;orthogonalLoop=1;jettySize=auto;html=1;exitX=1;exitY=0.5;exitDx=0;exitDy=0;entryX=0;entryY=0.5;entryDx=0;entryDy=0;" parent="1" source="-30cllrDM8pADMwWrVAT-34" target="-30cllrDM8pADMwWrVAT-1" edge="1">
          <mxGeometry relative="1" as="geometry" />
        </mxCell>
        <mxCell id="-30cllrDM8pADMwWrVAT-34" value="dataB" style="rounded=0;whiteSpace=wrap;html=1;" parent="1" vertex="1">
          <mxGeometry x="-190" y="170" width="130" height="150" as="geometry" />
        </mxCell>
        <mxCell id="-30cllrDM8pADMwWrVAT-39" style="edgeStyle=none;rounded=0;orthogonalLoop=1;jettySize=auto;html=1;exitX=1;exitY=0.5;exitDx=0;exitDy=0;entryX=0;entryY=0.5;entryDx=0;entryDy=0;" parent="1" source="-30cllrDM8pADMwWrVAT-35" target="-30cllrDM8pADMwWrVAT-37" edge="1">
          <mxGeometry relative="1" as="geometry" />
        </mxCell>
        <mxCell id="-30cllrDM8pADMwWrVAT-35" value="dataA" style="rounded=0;whiteSpace=wrap;html=1;" parent="1" vertex="1">
          <mxGeometry x="-190" y="490" width="130" height="150" as="geometry" />
        </mxCell>
        <mxCell id="-30cllrDM8pADMwWrVAT-41" style="edgeStyle=none;rounded=0;orthogonalLoop=1;jettySize=auto;html=1;exitX=0.5;exitY=1;exitDx=0;exitDy=0;" parent="1" source="-30cllrDM8pADMwWrVAT-37" edge="1">
          <mxGeometry relative="1" as="geometry">
            <mxPoint x="280" y="930" as="targetPoint" />
          </mxGeometry>
        </mxCell>
        <mxCell id="-30cllrDM8pADMwWrVAT-37" value="" style="rounded=0;whiteSpace=wrap;html=1;" parent="1" vertex="1">
          <mxGeometry x="60" y="490" width="130" height="150" as="geometry" />
        </mxCell>
        <mxCell id="-30cllrDM8pADMwWrVAT-38" value="complete_data_A" style="text;whiteSpace=wrap;fontSize=14;" parent="1" vertex="1">
          <mxGeometry x="70" y="450" width="130" height="30" as="geometry" />
        </mxCell>
        <mxCell id="-30cllrDM8pADMwWrVAT-42" value="" style="rounded=0;whiteSpace=wrap;html=1;" parent="1" vertex="1">
          <mxGeometry x="170" y="950" width="130" height="150" as="geometry" />
        </mxCell>
        <mxCell id="-30cllrDM8pADMwWrVAT-43" value="" style="rounded=0;whiteSpace=wrap;html=1;" parent="1" vertex="1">
          <mxGeometry x="300" y="950" width="130" height="90" as="geometry" />
        </mxCell>
        <mxCell id="-30cllrDM8pADMwWrVAT-48" value="" style="rounded=0;whiteSpace=wrap;html=1;dashed=1;" parent="1" vertex="1">
          <mxGeometry x="300" y="1040" width="130" height="60" as="geometry" />
        </mxCell>
        <mxCell id="-30cllrDM8pADMwWrVAT-51" style="edgeStyle=none;rounded=0;orthogonalLoop=1;jettySize=auto;html=1;" parent="1" source="-30cllrDM8pADMwWrVAT-49" edge="1">
          <mxGeometry relative="1" as="geometry">
            <mxPoint x="620" y="1120" as="targetPoint" />
          </mxGeometry>
        </mxCell>
        <mxCell id="-30cllrDM8pADMwWrVAT-49" value="aligned_df" style="text;whiteSpace=wrap;fontSize=15;" parent="1" vertex="1">
          <mxGeometry x="270" y="1110" width="70" height="30" as="geometry" />
        </mxCell>
        <mxCell id="-30cllrDM8pADMwWrVAT-52" value="combine_first" style="text;whiteSpace=wrap;fontSize=15;" parent="1" vertex="1">
          <mxGeometry x="630" y="1100" width="120" height="30" as="geometry" />
        </mxCell>
        <mxCell id="-30cllrDM8pADMwWrVAT-53" value="&lt;code style=&quot;--tw-border-spacing-x:0; --tw-border-spacing-y:0; --tw-translate-x:0; --tw-translate-y:0; --tw-rotate:0; --tw-skew-x:0; --tw-skew-y:0; --tw-scale-x:1; --tw-scale-y:1; --tw-pan-x: ; --tw-pan-y: ; --tw-pinch-zoom: ; --tw-scroll-snap-strictness:proximity; --tw-gradient-from-position: ; --tw-gradient-via-position: ; --tw-gradient-to-position: ; --tw-ordinal: ; --tw-slashed-zero: ; --tw-numeric-figure: ; --tw-numeric-spacing: ; --tw-numeric-fraction: ; --tw-ring-inset: ; --tw-ring-offset-width:0px; --tw-ring-offset-color:#fff; --tw-ring-color:#3b82f680; --tw-ring-offset-shadow:0 0 #0000; --tw-ring-shadow:0 0 #0000; --tw-shadow:0 0 #0000; --tw-shadow-colored:0 0 #0000; --tw-blur: ; --tw-brightness: ; --tw-contrast: ; --tw-grayscale: ; --tw-hue-rotate: ; --tw-invert: ; --tw-saturate: ; --tw-sepia: ; --tw-drop-shadow: ; --tw-backdrop-blur: ; --tw-backdrop-brightness: ; --tw-backdrop-contrast: ; --tw-backdrop-grayscale: ; --tw-backdrop-hue-rotate: ; --tw-backdrop-invert: ; --tw-backdrop-opacity: ; --tw-backdrop-saturate: ; --tw-backdrop-sepia: ; box-sizing: inherit; font-family: source-code-pro, Menlo, Monaco, Consolas, &amp;quot;Courier New&amp;quot;, monospace; color: rgba(0, 0, 0, 0.87); font-size: 13.7143px; font-style: normal; font-variant-ligatures: normal; font-variant-caps: normal; font-weight: 400; letter-spacing: 0.12864px; orphans: 2; text-align: start; text-indent: 0px; text-transform: none; white-space: normal; widows: 2; word-spacing: 0px; -webkit-text-stroke-width: 0px; text-decoration-thickness: initial; text-decoration-style: initial; text-decoration-color: initial; background-color: rgb(241, 241, 241); padding: 2px 4px; border-radius: 4px; border: 1px solid rgb(221, 221, 221);&quot;&gt;df1.combine_first(df2)&lt;/code&gt;&lt;span style=&quot;color: rgba(0, 0, 0, 0.87); font-family: Roboto, Helvetica, Arial, sans-serif; font-size: 13.7143px; font-style: normal; font-variant-ligatures: normal; font-variant-caps: normal; font-weight: 400; letter-spacing: 0.12864px; orphans: 2; text-align: start; text-indent: 0px; text-transform: none; white-space: normal; widows: 2; word-spacing: 0px; -webkit-text-stroke-width: 0px; background-color: rgb(255, 255, 255); text-decoration-thickness: initial; text-decoration-style: initial; text-decoration-color: initial; display: inline !important; float: none;&quot;&gt;的工作方式是，对于df1和df2中的每一个元素，如果df1中的元素是缺失值（NaN），那么就用df2中对应位置的元素来填充；如果df1中的元素不是缺失值，那么就保留df1中的元素。&lt;/span&gt;" style="text;whiteSpace=wrap;html=1;" parent="1" vertex="1">
          <mxGeometry x="610" y="920" width="430" height="70" as="geometry" />
        </mxCell>
        <mxCell id="-30cllrDM8pADMwWrVAT-54" value="" style="rounded=0;whiteSpace=wrap;html=1;" parent="1" vertex="1">
          <mxGeometry x="750" y="1060" width="130" height="150" as="geometry" />
        </mxCell>
        <mxCell id="-30cllrDM8pADMwWrVAT-55" value="" style="rounded=0;whiteSpace=wrap;html=1;" parent="1" vertex="1">
          <mxGeometry x="880" y="1060" width="130" height="90" as="geometry" />
        </mxCell>
        <mxCell id="-30cllrDM8pADMwWrVAT-56" value="" style="rounded=0;whiteSpace=wrap;html=1;dashed=1;" parent="1" vertex="1">
          <mxGeometry x="880" y="1150" width="130" height="60" as="geometry" />
        </mxCell>
        <mxCell id="-30cllrDM8pADMwWrVAT-57" value="" style="rounded=0;whiteSpace=wrap;html=1;strokeColor=#82b366;fillColor=#d5e8d4;" parent="1" vertex="1">
          <mxGeometry x="920" y="1150" width="20" height="60" as="geometry" />
        </mxCell>
        <mxCell id="-30cllrDM8pADMwWrVAT-58" value="" style="rounded=0;whiteSpace=wrap;html=1;strokeColor=#82b366;fillColor=#d5e8d4;" parent="1" vertex="1">
          <mxGeometry x="950" y="1150" width="20" height="60" as="geometry" />
        </mxCell>
        <mxCell id="-30cllrDM8pADMwWrVAT-59" value="synthetic_data" style="text;whiteSpace=wrap;fontSize=14;" parent="1" vertex="1">
          <mxGeometry x="970" y="560" width="110" height="30" as="geometry" />
        </mxCell>
        <mxCell id="-30cllrDM8pADMwWrVAT-60" value="correlation_synthetic_data" style="text;whiteSpace=wrap;fontSize=14;" parent="1" vertex="1">
          <mxGeometry x="449" y="430" width="170" height="40" as="geometry" />
        </mxCell>
        <mxCell id="-30cllrDM8pADMwWrVAT-61" value="" style="endArrow=classic;html=1;rounded=0;" parent="1" edge="1">
          <mxGeometry width="50" height="50" relative="1" as="geometry">
            <mxPoint x="1080" y="1250" as="sourcePoint" />
            <mxPoint x="1020" y="1200" as="targetPoint" />
          </mxGeometry>
        </mxCell>
        <mxCell id="-30cllrDM8pADMwWrVAT-62" value="还有很多地方是nan" style="text;whiteSpace=wrap;fontSize=15;" parent="1" vertex="1">
          <mxGeometry x="1070" y="1250" width="160" height="40" as="geometry" />
        </mxCell>
        <mxCell id="-30cllrDM8pADMwWrVAT-65" value="aligned_df_new" style="text;whiteSpace=wrap;fontSize=16;" parent="1" vertex="1">
          <mxGeometry x="827" y="1230" width="120" height="40" as="geometry" />
        </mxCell>
        <mxCell id="-30cllrDM8pADMwWrVAT-69" style="edgeStyle=none;rounded=0;orthogonalLoop=1;jettySize=auto;html=1;exitX=1;exitY=0.5;exitDx=0;exitDy=0;entryX=0;entryY=0.5;entryDx=0;entryDy=0;" parent="1" source="-30cllrDM8pADMwWrVAT-66" target="-30cllrDM8pADMwWrVAT-34" edge="1">
          <mxGeometry relative="1" as="geometry" />
        </mxCell>
        <mxCell id="-30cllrDM8pADMwWrVAT-70" style="edgeStyle=none;rounded=0;orthogonalLoop=1;jettySize=auto;html=1;exitX=1;exitY=0.5;exitDx=0;exitDy=0;entryX=0;entryY=0.5;entryDx=0;entryDy=0;" parent="1" source="-30cllrDM8pADMwWrVAT-66" target="-30cllrDM8pADMwWrVAT-35" edge="1">
          <mxGeometry relative="1" as="geometry" />
        </mxCell>
        <mxCell id="-30cllrDM8pADMwWrVAT-66" value="dataB" style="rounded=0;whiteSpace=wrap;html=1;" parent="1" vertex="1">
          <mxGeometry x="-430" y="350" width="130" height="150" as="geometry" />
        </mxCell>
        <mxCell id="-30cllrDM8pADMwWrVAT-67" value="dataA" style="rounded=0;whiteSpace=wrap;html=1;" parent="1" vertex="1">
          <mxGeometry x="-560" y="350" width="130" height="150" as="geometry" />
        </mxCell>
        <mxCell id="-30cllrDM8pADMwWrVAT-81" style="edgeStyle=none;rounded=0;orthogonalLoop=1;jettySize=auto;html=1;exitX=0.5;exitY=1;exitDx=0;exitDy=0;entryX=0;entryY=0.5;entryDx=0;entryDy=0;" parent="1" source="-30cllrDM8pADMwWrVAT-68" target="-30cllrDM8pADMwWrVAT-79" edge="1">
          <mxGeometry relative="1" as="geometry">
            <Array as="points">
              <mxPoint x="-410" y="1520" />
            </Array>
          </mxGeometry>
        </mxCell>
        <mxCell id="-30cllrDM8pADMwWrVAT-68" value="bank" style="text;whiteSpace=wrap;fontSize=19;" parent="1" vertex="1">
          <mxGeometry x="-463" y="520" width="100" height="40" as="geometry" />
        </mxCell>
        <mxCell id="-30cllrDM8pADMwWrVAT-71" value="" style="shape=flexArrow;endArrow=classic;html=1;rounded=0;" parent="1" edge="1">
          <mxGeometry width="50" height="50" relative="1" as="geometry">
            <mxPoint x="870" y="1280" as="sourcePoint" />
            <mxPoint x="871.5" y="1430" as="targetPoint" />
          </mxGeometry>
        </mxCell>
        <mxCell id="-30cllrDM8pADMwWrVAT-72" value="gain进行填补" style="text;whiteSpace=wrap;fontSize=15;" parent="1" vertex="1">
          <mxGeometry x="710" y="1320" width="140" height="40" as="geometry" />
        </mxCell>
        <mxCell id="-30cllrDM8pADMwWrVAT-75" value="" style="rounded=0;whiteSpace=wrap;html=1;" parent="1" vertex="1">
          <mxGeometry x="740" y="1440" width="130" height="150" as="geometry" />
        </mxCell>
        <mxCell id="-30cllrDM8pADMwWrVAT-76" value="" style="rounded=0;whiteSpace=wrap;html=1;" parent="1" vertex="1">
          <mxGeometry x="870" y="1440" width="130" height="150" as="geometry" />
        </mxCell>
        <mxCell id="-30cllrDM8pADMwWrVAT-77" value="imputed_data_x" style="text;whiteSpace=wrap;fontSize=15;" parent="1" vertex="1">
          <mxGeometry x="824" y="1610" width="96" height="20" as="geometry" />
        </mxCell>
        <mxCell id="-30cllrDM8pADMwWrVAT-78" value="dataB" style="rounded=0;whiteSpace=wrap;html=1;" parent="1" vertex="1">
          <mxGeometry x="560" y="1440" width="130" height="150" as="geometry" />
        </mxCell>
        <mxCell id="-30cllrDM8pADMwWrVAT-79" value="dataA" style="rounded=0;whiteSpace=wrap;html=1;" parent="1" vertex="1">
          <mxGeometry x="430" y="1440" width="130" height="150" as="geometry" />
        </mxCell>
        <mxCell id="-30cllrDM8pADMwWrVAT-80" value="bank" style="text;whiteSpace=wrap;fontSize=19;" parent="1" vertex="1">
          <mxGeometry x="527" y="1610" width="100" height="40" as="geometry" />
        </mxCell>
        <mxCell id="-30cllrDM8pADMwWrVAT-82" value="complete_data_A" style="text;whiteSpace=wrap;fontSize=14;" parent="1" vertex="1">
          <mxGeometry x="130" y="900" width="130" height="30" as="geometry" />
        </mxCell>
        <mxCell id="-30cllrDM8pADMwWrVAT-83" value="complete_data_A" style="text;whiteSpace=wrap;fontSize=14;" parent="1" vertex="1">
          <mxGeometry x="50" y="1670" width="130" height="30" as="geometry" />
        </mxCell>
        <mxCell id="-30cllrDM8pADMwWrVAT-84" value="incomplete_data_B" style="text;whiteSpace=wrap;fontSize=14;" parent="1" vertex="1">
          <mxGeometry x="320" y="900" width="140" height="30" as="geometry" />
        </mxCell>
        <mxCell id="-30cllrDM8pADMwWrVAT-85" value="" style="shape=curlyBracket;whiteSpace=wrap;html=1;rounded=1;flipH=1;labelPosition=right;verticalLabelPosition=middle;align=left;verticalAlign=middle;rotation=90;" parent="1" vertex="1">
          <mxGeometry x="720" y="1503" width="20" height="364" as="geometry" />
        </mxCell>
        <mxCell id="-30cllrDM8pADMwWrVAT-86" value="计算RMSE" style="text;whiteSpace=wrap;fontSize=19;" parent="1" vertex="1">
          <mxGeometry x="700" y="1714" width="100" height="40" as="geometry" />
        </mxCell>
        <mxCell id="-30cllrDM8pADMwWrVAT-87" value="" style="shape=flexArrow;endArrow=classic;html=1;rounded=0;" parent="1" edge="1">
          <mxGeometry width="50" height="50" relative="1" as="geometry">
            <mxPoint x="1050" y="1530" as="sourcePoint" />
            <mxPoint x="1190" y="1530" as="targetPoint" />
          </mxGeometry>
        </mxCell>
        <mxCell id="-30cllrDM8pADMwWrVAT-88" value="根据标签计算ACC，AUC，F1" style="text;whiteSpace=wrap;fontSize=19;" parent="1" vertex="1">
          <mxGeometry x="1220" y="1510" width="270" height="47" as="geometry" />
        </mxCell>
      </root>
    </mxGraphModel>
  </diagram>
  <diagram id="PbjiDVLPoXYlGCp-Z0Ql" name="VFPU实验设计">
    <mxGraphModel dx="1877" dy="629" grid="1" gridSize="10" guides="1" tooltips="1" connect="1" arrows="1" fold="1" page="1" pageScale="1" pageWidth="827" pageHeight="1169" math="0" shadow="0">
      <root>
        <mxCell id="0" />
        <mxCell id="1" parent="0" />
        <mxCell id="Po-570FjQl7XCV5NUwRc-1" value="" style="rounded=0;whiteSpace=wrap;html=1;" parent="1" vertex="1">
          <mxGeometry x="-670" y="180" width="130" height="150" as="geometry" />
        </mxCell>
        <mxCell id="Po-570FjQl7XCV5NUwRc-2" value="" style="rounded=0;whiteSpace=wrap;html=1;" parent="1" vertex="1">
          <mxGeometry x="-800" y="180" width="130" height="150" as="geometry" />
        </mxCell>
        <mxCell id="Po-570FjQl7XCV5NUwRc-3" value="bank" style="text;whiteSpace=wrap;fontSize=19;" parent="1" vertex="1">
          <mxGeometry x="-703" y="350" width="100" height="40" as="geometry" />
        </mxCell>
        <mxCell id="pzn8sWG0rDhz8CZDonqI-1" value="dataB" style="rounded=0;whiteSpace=wrap;html=1;" parent="1" vertex="1">
          <mxGeometry x="-450" y="40" width="130" height="150" as="geometry" />
        </mxCell>
        <mxCell id="pE-U730nLnzJFJTDuvWJ-3" style="edgeStyle=none;rounded=0;orthogonalLoop=1;jettySize=auto;html=1;exitX=1;exitY=0.5;exitDx=0;exitDy=0;" parent="1" source="pzn8sWG0rDhz8CZDonqI-2" edge="1">
          <mxGeometry relative="1" as="geometry">
            <mxPoint x="90" y="310" as="targetPoint" />
          </mxGeometry>
        </mxCell>
        <mxCell id="pzn8sWG0rDhz8CZDonqI-2" value="dataA" style="rounded=0;whiteSpace=wrap;html=1;" parent="1" vertex="1">
          <mxGeometry x="-450" y="360" width="130" height="150" as="geometry" />
        </mxCell>
        <mxCell id="pzn8sWG0rDhz8CZDonqI-4" style="edgeStyle=none;rounded=0;orthogonalLoop=1;jettySize=auto;html=1;exitX=1;exitY=0.5;exitDx=0;exitDy=0;entryX=-0.005;entryY=0.459;entryDx=0;entryDy=0;entryPerimeter=0;" parent="1" source="Po-570FjQl7XCV5NUwRc-1" target="pzn8sWG0rDhz8CZDonqI-1" edge="1">
          <mxGeometry relative="1" as="geometry" />
        </mxCell>
        <mxCell id="pzn8sWG0rDhz8CZDonqI-5" style="edgeStyle=none;rounded=0;orthogonalLoop=1;jettySize=auto;html=1;exitX=1;exitY=0.5;exitDx=0;exitDy=0;entryX=-0.011;entryY=0.549;entryDx=0;entryDy=0;entryPerimeter=0;" parent="1" source="Po-570FjQl7XCV5NUwRc-1" target="pzn8sWG0rDhz8CZDonqI-2" edge="1">
          <mxGeometry relative="1" as="geometry" />
        </mxCell>
        <mxCell id="GRQT7Y3lPTp_-G0xOruz-1" value="" style="shape=flexArrow;endArrow=classic;html=1;rounded=0;" parent="1" edge="1">
          <mxGeometry width="50" height="50" relative="1" as="geometry">
            <mxPoint x="-300" y="120" as="sourcePoint" />
            <mxPoint x="-150" y="120.5" as="targetPoint" />
          </mxGeometry>
        </mxCell>
        <mxCell id="GRQT7Y3lPTp_-G0xOruz-2" value="data_loader2" style="edgeLabel;html=1;align=center;verticalAlign=middle;resizable=0;points=[];fontSize=13;" parent="GRQT7Y3lPTp_-G0xOruz-1" vertex="1" connectable="0">
          <mxGeometry x="-0.044" y="-1" relative="1" as="geometry">
            <mxPoint y="1" as="offset" />
          </mxGeometry>
        </mxCell>
        <mxCell id="pE-U730nLnzJFJTDuvWJ-4" style="edgeStyle=none;rounded=0;orthogonalLoop=1;jettySize=auto;html=1;exitX=1;exitY=0.5;exitDx=0;exitDy=0;" parent="1" source="NOp0SsK4Fo8vlRH0yTyh-1" edge="1">
          <mxGeometry relative="1" as="geometry">
            <mxPoint x="90" y="290" as="targetPoint" />
          </mxGeometry>
        </mxCell>
        <mxCell id="NOp0SsK4Fo8vlRH0yTyh-1" value="" style="rounded=0;whiteSpace=wrap;html=1;" parent="1" vertex="1">
          <mxGeometry x="-140" y="40" width="130" height="90" as="geometry" />
        </mxCell>
        <mxCell id="NOp0SsK4Fo8vlRH0yTyh-2" value="" style="rounded=0;whiteSpace=wrap;html=1;dashed=1;dashPattern=8 8;" parent="1" vertex="1">
          <mxGeometry x="-140" y="130" width="130" height="60" as="geometry" />
        </mxCell>
        <mxCell id="pE-U730nLnzJFJTDuvWJ-1" value="incomplete_data_B" style="text;whiteSpace=wrap;fontSize=14;" parent="1" vertex="1">
          <mxGeometry x="-140" width="140" height="30" as="geometry" />
        </mxCell>
        <mxCell id="pE-U730nLnzJFJTDuvWJ-5" value="VFPU MODEL" style="sketch=0;outlineConnect=0;fontColor=#232F3E;gradientColor=none;fillColor=#01A88D;strokeColor=none;dashed=0;verticalLabelPosition=bottom;verticalAlign=top;align=center;html=1;fontSize=14;fontStyle=0;aspect=fixed;pointerEvents=1;shape=mxgraph.aws4.sagemaker_model;" parent="1" vertex="1">
          <mxGeometry x="100" y="252" width="78" height="78" as="geometry" />
        </mxCell>
        <mxCell id="M1lBcDTdeqeP76iwwBnm-1" value="" style="rounded=0;whiteSpace=wrap;html=1;" vertex="1" parent="1">
          <mxGeometry x="-710" y="700" width="130" height="150" as="geometry" />
        </mxCell>
        <mxCell id="M1lBcDTdeqeP76iwwBnm-2" value="" style="rounded=0;whiteSpace=wrap;html=1;" vertex="1" parent="1">
          <mxGeometry x="-580" y="700" width="130" height="90" as="geometry" />
        </mxCell>
        <mxCell id="M1lBcDTdeqeP76iwwBnm-3" value="" style="rounded=0;whiteSpace=wrap;html=1;dashed=1;" vertex="1" parent="1">
          <mxGeometry x="-580" y="790" width="130" height="60" as="geometry" />
        </mxCell>
        <mxCell id="M1lBcDTdeqeP76iwwBnm-4" value="A" style="text;whiteSpace=wrap;fontSize=19;" vertex="1" parent="1">
          <mxGeometry x="-650" y="660" width="30" height="40" as="geometry" />
        </mxCell>
        <mxCell id="M1lBcDTdeqeP76iwwBnm-5" value="B" style="text;whiteSpace=wrap;fontSize=19;" vertex="1" parent="1">
          <mxGeometry x="-530" y="660" width="30" height="40" as="geometry" />
        </mxCell>
        <mxCell id="M1lBcDTdeqeP76iwwBnm-6" value="" style="rounded=0;whiteSpace=wrap;html=1;fillColor=#d5e8d4;strokeColor=#82b366;" vertex="1" parent="1">
          <mxGeometry x="-710" y="790" width="130" height="60" as="geometry" />
        </mxCell>
        <mxCell id="M1lBcDTdeqeP76iwwBnm-7" value="" style="rounded=0;whiteSpace=wrap;html=1;fillColor=#d5e8d4;strokeColor=#82b366;" vertex="1" parent="1">
          <mxGeometry x="-120" y="740" width="130" height="60" as="geometry" />
        </mxCell>
        <mxCell id="M1lBcDTdeqeP76iwwBnm-9" value="" style="rounded=0;whiteSpace=wrap;html=1;" vertex="1" parent="1">
          <mxGeometry x="-290" y="740" width="130" height="90" as="geometry" />
        </mxCell>
        <mxCell id="M1lBcDTdeqeP76iwwBnm-10" value="B" style="text;whiteSpace=wrap;fontSize=19;" vertex="1" parent="1">
          <mxGeometry x="-240" y="690" width="30" height="40" as="geometry" />
        </mxCell>
        <mxCell id="M1lBcDTdeqeP76iwwBnm-11" value="" style="rounded=0;whiteSpace=wrap;html=1;fillColor=#fff2cc;strokeColor=#d6b656;" vertex="1" parent="1">
          <mxGeometry x="-530" y="790" width="10" height="60" as="geometry" />
        </mxCell>
        <mxCell id="M1lBcDTdeqeP76iwwBnm-12" value="" style="rounded=0;whiteSpace=wrap;html=1;fillColor=#fff2cc;strokeColor=#d6b656;" vertex="1" parent="1">
          <mxGeometry x="10" y="740" width="10" height="60" as="geometry" />
        </mxCell>
        <mxCell id="M1lBcDTdeqeP76iwwBnm-13" value="" style="shape=flexArrow;endArrow=classic;html=1;rounded=0;" edge="1" parent="1">
          <mxGeometry width="50" height="50" relative="1" as="geometry">
            <mxPoint x="-410" y="800" as="sourcePoint" />
            <mxPoint x="-350" y="800" as="targetPoint" />
          </mxGeometry>
        </mxCell>
        <mxCell id="M1lBcDTdeqeP76iwwBnm-14" value="" style="shape=flexArrow;endArrow=classic;html=1;rounded=0;" edge="1" parent="1">
          <mxGeometry width="50" height="50" relative="1" as="geometry">
            <mxPoint x="-190" y="880" as="sourcePoint" />
            <mxPoint x="-190" y="960" as="targetPoint" />
          </mxGeometry>
        </mxCell>
        <mxCell id="M1lBcDTdeqeP76iwwBnm-15" value="对齐" style="text;whiteSpace=wrap;fontSize=19;" vertex="1" parent="1">
          <mxGeometry x="-160" y="900" width="50" height="40" as="geometry" />
        </mxCell>
        <mxCell id="M1lBcDTdeqeP76iwwBnm-18" style="edgeStyle=none;rounded=0;orthogonalLoop=1;jettySize=auto;html=1;exitX=0.5;exitY=0;exitDx=0;exitDy=0;" edge="1" parent="1" source="M1lBcDTdeqeP76iwwBnm-16">
          <mxGeometry relative="1" as="geometry">
            <mxPoint x="-650" y="860" as="targetPoint" />
          </mxGeometry>
        </mxCell>
        <mxCell id="M1lBcDTdeqeP76iwwBnm-16" value="A_unaligned" style="text;whiteSpace=wrap;fontSize=19;" vertex="1" parent="1">
          <mxGeometry x="-720" y="900" width="90" height="40" as="geometry" />
        </mxCell>
        <mxCell id="M1lBcDTdeqeP76iwwBnm-19" value="" style="rounded=0;whiteSpace=wrap;html=1;fillColor=#f8cecc;strokeColor=#b85450;" vertex="1" parent="1">
          <mxGeometry x="-530" y="700" width="10" height="90" as="geometry" />
        </mxCell>
        <mxCell id="M1lBcDTdeqeP76iwwBnm-20" value="" style="rounded=0;whiteSpace=wrap;html=1;fillColor=#f8cecc;strokeColor=#b85450;" vertex="1" parent="1">
          <mxGeometry x="-160" y="740" width="10" height="90" as="geometry" />
        </mxCell>
        <mxCell id="M1lBcDTdeqeP76iwwBnm-24" value="A_unaligned" style="text;whiteSpace=wrap;fontSize=19;" vertex="1" parent="1">
          <mxGeometry x="-110" y="690" width="90" height="40" as="geometry" />
        </mxCell>
        <mxCell id="M1lBcDTdeqeP76iwwBnm-25" value="" style="endArrow=classic;html=1;rounded=0;" edge="1" parent="1">
          <mxGeometry width="50" height="50" relative="1" as="geometry">
            <mxPoint x="140" y="650" as="sourcePoint" />
            <mxPoint x="30" y="760" as="targetPoint" />
          </mxGeometry>
        </mxCell>
        <mxCell id="M1lBcDTdeqeP76iwwBnm-26" value="label" style="text;whiteSpace=wrap;fontSize=19;" vertex="1" parent="1">
          <mxGeometry x="-100" y="550" width="50" height="30" as="geometry" />
        </mxCell>
        <mxCell id="M1lBcDTdeqeP76iwwBnm-27" value="unlable" style="text;whiteSpace=wrap;fontSize=19;" vertex="1" parent="1">
          <mxGeometry x="140" y="600" width="50" height="30" as="geometry" />
        </mxCell>
        <mxCell id="M1lBcDTdeqeP76iwwBnm-28" value="" style="endArrow=classic;html=1;rounded=0;" edge="1" parent="1">
          <mxGeometry width="50" height="50" relative="1" as="geometry">
            <mxPoint x="-80" y="600" as="sourcePoint" />
            <mxPoint x="-140" y="740" as="targetPoint" />
          </mxGeometry>
        </mxCell>
        <mxCell id="M1lBcDTdeqeP76iwwBnm-29" value="通过预测生成的标签" style="text;whiteSpace=wrap;fontSize=19;" vertex="1" parent="1">
          <mxGeometry x="100" y="755" width="180" height="30" as="geometry" />
        </mxCell>
        <mxCell id="M1lBcDTdeqeP76iwwBnm-30" value="" style="rounded=0;whiteSpace=wrap;html=1;" vertex="1" parent="1">
          <mxGeometry x="-703" y="1190" width="130" height="150" as="geometry" />
        </mxCell>
        <mxCell id="M1lBcDTdeqeP76iwwBnm-31" value="" style="rounded=0;whiteSpace=wrap;html=1;" vertex="1" parent="1">
          <mxGeometry x="-573" y="1190" width="130" height="90" as="geometry" />
        </mxCell>
        <mxCell id="M1lBcDTdeqeP76iwwBnm-32" value="" style="rounded=0;whiteSpace=wrap;html=1;dashed=1;" vertex="1" parent="1">
          <mxGeometry x="-573" y="1280" width="130" height="60" as="geometry" />
        </mxCell>
        <mxCell id="M1lBcDTdeqeP76iwwBnm-33" value="A" style="text;whiteSpace=wrap;fontSize=19;" vertex="1" parent="1">
          <mxGeometry x="-643" y="1150" width="30" height="40" as="geometry" />
        </mxCell>
        <mxCell id="M1lBcDTdeqeP76iwwBnm-34" value="B" style="text;whiteSpace=wrap;fontSize=19;" vertex="1" parent="1">
          <mxGeometry x="-523" y="1150" width="30" height="40" as="geometry" />
        </mxCell>
        <mxCell id="M1lBcDTdeqeP76iwwBnm-35" value="" style="rounded=0;whiteSpace=wrap;html=1;fillColor=#d5e8d4;strokeColor=#82b366;" vertex="1" parent="1">
          <mxGeometry x="-703" y="1280" width="130" height="60" as="geometry" />
        </mxCell>
        <mxCell id="M1lBcDTdeqeP76iwwBnm-36" value="" style="rounded=0;whiteSpace=wrap;html=1;fillColor=#fff2cc;strokeColor=#d6b656;" vertex="1" parent="1">
          <mxGeometry x="-523" y="1280" width="10" height="60" as="geometry" />
        </mxCell>
        <mxCell id="M1lBcDTdeqeP76iwwBnm-37" value="" style="rounded=0;whiteSpace=wrap;html=1;fillColor=#f8cecc;strokeColor=#b85450;" vertex="1" parent="1">
          <mxGeometry x="-210" y="1190" width="10" height="90" as="geometry" />
        </mxCell>
        <mxCell id="M1lBcDTdeqeP76iwwBnm-38" value="" style="shape=flexArrow;endArrow=classic;html=1;rounded=0;" edge="1" parent="1">
          <mxGeometry width="50" height="50" relative="1" as="geometry">
            <mxPoint x="-416.5" y="1264.5" as="sourcePoint" />
            <mxPoint x="-353.5" y="1264.5" as="targetPoint" />
          </mxGeometry>
        </mxCell>
        <mxCell id="M1lBcDTdeqeP76iwwBnm-39" value="B" style="text;whiteSpace=wrap;fontSize=19;" vertex="1" parent="1">
          <mxGeometry x="-280" y="1160" width="30" height="40" as="geometry" />
        </mxCell>
        <mxCell id="M1lBcDTdeqeP76iwwBnm-40" value="" style="rounded=0;whiteSpace=wrap;html=1;" vertex="1" parent="1">
          <mxGeometry x="-330" y="1190" width="120" height="90" as="geometry" />
        </mxCell>
        <mxCell id="M1lBcDTdeqeP76iwwBnm-42" value="" style="rounded=0;whiteSpace=wrap;html=1;" vertex="1" parent="1">
          <mxGeometry x="-160" y="1190" width="130" height="150" as="geometry" />
        </mxCell>
        <mxCell id="M1lBcDTdeqeP76iwwBnm-43" value="" style="rounded=0;whiteSpace=wrap;html=1;fillColor=#d5e8d4;strokeColor=#82b366;" vertex="1" parent="1">
          <mxGeometry x="-160" y="1280" width="130" height="60" as="geometry" />
        </mxCell>
        <mxCell id="M1lBcDTdeqeP76iwwBnm-44" value="A" style="text;whiteSpace=wrap;fontSize=19;" vertex="1" parent="1">
          <mxGeometry x="-110" y="1150" width="30" height="40" as="geometry" />
        </mxCell>
        <mxCell id="M1lBcDTdeqeP76iwwBnm-45" value="" style="rounded=0;whiteSpace=wrap;html=1;fillColor=#fff2cc;strokeColor=#d6b656;" vertex="1" parent="1">
          <mxGeometry x="-30" y="1190" width="10" height="150" as="geometry" />
        </mxCell>
        <mxCell id="M1lBcDTdeqeP76iwwBnm-47" value="unlable" style="text;whiteSpace=wrap;fontSize=19;" vertex="1" parent="1">
          <mxGeometry x="100" y="1080" width="50" height="30" as="geometry" />
        </mxCell>
        <mxCell id="M1lBcDTdeqeP76iwwBnm-48" value="" style="endArrow=classic;html=1;rounded=0;" edge="1" parent="1">
          <mxGeometry width="50" height="50" relative="1" as="geometry">
            <mxPoint x="100" y="1130" as="sourcePoint" />
            <mxPoint x="-10" y="1240" as="targetPoint" />
          </mxGeometry>
        </mxCell>
        <mxCell id="M1lBcDTdeqeP76iwwBnm-49" value="" style="rounded=0;whiteSpace=wrap;html=1;fillColor=#f8cecc;strokeColor=#b85450;" vertex="1" parent="1">
          <mxGeometry x="-523" y="1190" width="10" height="90" as="geometry" />
        </mxCell>
        <mxCell id="M1lBcDTdeqeP76iwwBnm-50" value="" style="shape=flexArrow;endArrow=classic;html=1;rounded=0;" edge="1" parent="1">
          <mxGeometry width="50" height="50" relative="1" as="geometry">
            <mxPoint x="-210" y="1400" as="sourcePoint" />
            <mxPoint x="-210" y="1480" as="targetPoint" />
          </mxGeometry>
        </mxCell>
        <mxCell id="M1lBcDTdeqeP76iwwBnm-51" value="对齐" style="edgeLabel;html=1;align=center;verticalAlign=middle;resizable=0;points=[];" vertex="1" connectable="0" parent="M1lBcDTdeqeP76iwwBnm-50">
          <mxGeometry x="-0.18" y="3" relative="1" as="geometry">
            <mxPoint as="offset" />
          </mxGeometry>
        </mxCell>
        <mxCell id="M1lBcDTdeqeP76iwwBnm-52" value="" style="rounded=0;whiteSpace=wrap;html=1;fillColor=#f8cecc;strokeColor=#b85450;" vertex="1" parent="1">
          <mxGeometry x="-240" y="1520" width="10" height="90" as="geometry" />
        </mxCell>
        <mxCell id="M1lBcDTdeqeP76iwwBnm-53" value="B" style="text;whiteSpace=wrap;fontSize=19;" vertex="1" parent="1">
          <mxGeometry x="-310" y="1490" width="30" height="40" as="geometry" />
        </mxCell>
        <mxCell id="M1lBcDTdeqeP76iwwBnm-54" value="" style="rounded=0;whiteSpace=wrap;html=1;" vertex="1" parent="1">
          <mxGeometry x="-360" y="1520" width="120" height="90" as="geometry" />
        </mxCell>
        <mxCell id="M1lBcDTdeqeP76iwwBnm-55" value="" style="rounded=0;whiteSpace=wrap;html=1;" vertex="1" parent="1">
          <mxGeometry x="-190" y="1520" width="130" height="90" as="geometry" />
        </mxCell>
        <mxCell id="M1lBcDTdeqeP76iwwBnm-57" value="A" style="text;whiteSpace=wrap;fontSize=19;" vertex="1" parent="1">
          <mxGeometry x="-140" y="1480" width="30" height="40" as="geometry" />
        </mxCell>
        <mxCell id="M1lBcDTdeqeP76iwwBnm-58" value="" style="rounded=0;whiteSpace=wrap;html=1;fillColor=#fff2cc;strokeColor=#d6b656;" vertex="1" parent="1">
          <mxGeometry x="-60" y="1520" width="10" height="90" as="geometry" />
        </mxCell>
        <mxCell id="M1lBcDTdeqeP76iwwBnm-59" value="unlable" style="text;whiteSpace=wrap;fontSize=19;" vertex="1" parent="1">
          <mxGeometry x="70" y="1410" width="50" height="30" as="geometry" />
        </mxCell>
        <mxCell id="M1lBcDTdeqeP76iwwBnm-60" value="" style="endArrow=classic;html=1;rounded=0;" edge="1" parent="1">
          <mxGeometry width="50" height="50" relative="1" as="geometry">
            <mxPoint x="70" y="1460" as="sourcePoint" />
            <mxPoint x="-40" y="1570" as="targetPoint" />
          </mxGeometry>
        </mxCell>
        <mxCell id="M1lBcDTdeqeP76iwwBnm-61" value="VFPU MODEL" style="sketch=0;outlineConnect=0;fontColor=#232F3E;gradientColor=none;fillColor=#01A88D;strokeColor=none;dashed=0;verticalLabelPosition=bottom;verticalAlign=top;align=center;html=1;fontSize=14;fontStyle=0;aspect=fixed;pointerEvents=1;shape=mxgraph.aws4.sagemaker_model;" vertex="1" parent="1">
          <mxGeometry x="-244" y="1720" width="78" height="78" as="geometry" />
        </mxCell>
        <mxCell id="M1lBcDTdeqeP76iwwBnm-62" value="" style="shape=flexArrow;endArrow=classic;html=1;rounded=0;" edge="1" parent="1">
          <mxGeometry width="50" height="50" relative="1" as="geometry">
            <mxPoint x="-210" y="1400" as="sourcePoint" />
            <mxPoint x="-210" y="1480" as="targetPoint" />
          </mxGeometry>
        </mxCell>
        <mxCell id="M1lBcDTdeqeP76iwwBnm-63" value="对齐" style="edgeLabel;html=1;align=center;verticalAlign=middle;resizable=0;points=[];fontSize=13;" vertex="1" connectable="0" parent="M1lBcDTdeqeP76iwwBnm-62">
          <mxGeometry x="-0.18" y="3" relative="1" as="geometry">
            <mxPoint as="offset" />
          </mxGeometry>
        </mxCell>
        <mxCell id="M1lBcDTdeqeP76iwwBnm-64" value="" style="shape=flexArrow;endArrow=classic;html=1;rounded=0;" edge="1" parent="1">
          <mxGeometry width="50" height="50" relative="1" as="geometry">
            <mxPoint x="-211" y="1630" as="sourcePoint" />
            <mxPoint x="-211" y="1710" as="targetPoint" />
          </mxGeometry>
        </mxCell>
        <mxCell id="M1lBcDTdeqeP76iwwBnm-65" value="对齐" style="edgeLabel;html=1;align=center;verticalAlign=middle;resizable=0;points=[];" vertex="1" connectable="0" parent="M1lBcDTdeqeP76iwwBnm-64">
          <mxGeometry x="-0.18" y="3" relative="1" as="geometry">
            <mxPoint as="offset" />
          </mxGeometry>
        </mxCell>
        <mxCell id="M1lBcDTdeqeP76iwwBnm-66" value="训练" style="edgeLabel;html=1;align=center;verticalAlign=middle;resizable=0;points=[];" vertex="1" connectable="0" parent="M1lBcDTdeqeP76iwwBnm-64">
          <mxGeometry x="-0.18" y="3" relative="1" as="geometry">
            <mxPoint as="offset" />
          </mxGeometry>
        </mxCell>
        <mxCell id="M1lBcDTdeqeP76iwwBnm-68" style="edgeStyle=none;rounded=0;orthogonalLoop=1;jettySize=auto;html=1;exitX=1;exitY=0.5;exitDx=0;exitDy=0;" edge="1" parent="1" source="M1lBcDTdeqeP76iwwBnm-67">
          <mxGeometry relative="1" as="geometry">
            <mxPoint x="-260" y="1768" as="targetPoint" />
          </mxGeometry>
        </mxCell>
        <mxCell id="M1lBcDTdeqeP76iwwBnm-69" value="输入测试数据" style="edgeLabel;html=1;align=center;verticalAlign=middle;resizable=0;points=[];fontSize=14;" vertex="1" connectable="0" parent="M1lBcDTdeqeP76iwwBnm-68">
          <mxGeometry x="-0.1864" y="-2" relative="1" as="geometry">
            <mxPoint x="6" as="offset" />
          </mxGeometry>
        </mxCell>
        <mxCell id="M1lBcDTdeqeP76iwwBnm-67" value="" style="rounded=0;whiteSpace=wrap;html=1;fillColor=#d5e8d4;strokeColor=#82b366;" vertex="1" parent="1">
          <mxGeometry x="-510" y="1737" width="130" height="60" as="geometry" />
        </mxCell>
        <mxCell id="M1lBcDTdeqeP76iwwBnm-75" style="edgeStyle=elbowEdgeStyle;rounded=0;orthogonalLoop=1;jettySize=auto;html=1;exitX=0.5;exitY=1;exitDx=0;exitDy=0;entryX=0.25;entryY=1;entryDx=0;entryDy=0;elbow=vertical;" edge="1" parent="1" source="M1lBcDTdeqeP76iwwBnm-70" target="M1lBcDTdeqeP76iwwBnm-36">
          <mxGeometry relative="1" as="geometry">
            <Array as="points">
              <mxPoint x="-350" y="1880" />
            </Array>
          </mxGeometry>
        </mxCell>
        <mxCell id="M1lBcDTdeqeP76iwwBnm-76" value="生成" style="edgeLabel;html=1;align=center;verticalAlign=middle;resizable=0;points=[];fontSize=16;fontColor=none;noLabel=1;" vertex="1" connectable="0" parent="M1lBcDTdeqeP76iwwBnm-75">
          <mxGeometry x="0.7308" relative="1" as="geometry">
            <mxPoint y="1" as="offset" />
          </mxGeometry>
        </mxCell>
        <mxCell id="M1lBcDTdeqeP76iwwBnm-70" value="" style="rounded=0;whiteSpace=wrap;html=1;fillColor=#fff2cc;strokeColor=#d6b656;" vertex="1" parent="1">
          <mxGeometry x="-70" y="1728" width="10" height="62" as="geometry" />
        </mxCell>
        <mxCell id="M1lBcDTdeqeP76iwwBnm-79" value="" style="endArrow=classic;html=1;rounded=0;curved=1;" edge="1" parent="1">
          <mxGeometry width="50" height="50" relative="1" as="geometry">
            <mxPoint x="-160" y="1767" as="sourcePoint" />
            <mxPoint x="-80" y="1766.5" as="targetPoint" />
          </mxGeometry>
        </mxCell>
        <mxCell id="M1lBcDTdeqeP76iwwBnm-82" value="预测" style="edgeLabel;html=1;align=center;verticalAlign=middle;resizable=0;points=[];fontSize=13;" vertex="1" connectable="0" parent="M1lBcDTdeqeP76iwwBnm-79">
          <mxGeometry x="-0.2052" y="-1" relative="1" as="geometry">
            <mxPoint as="offset" />
          </mxGeometry>
        </mxCell>
      </root>
    </mxGraphModel>
  </diagram>
  <diagram id="0O6O3d4uDQPvwAkmoYVx" name="第 4 页">
    <mxGraphModel dx="1050" dy="629" grid="1" gridSize="10" guides="1" tooltips="1" connect="1" arrows="1" fold="1" page="1" pageScale="1" pageWidth="827" pageHeight="1169" math="0" shadow="0">
      <root>
        <mxCell id="0" />
        <mxCell id="1" parent="0" />
      </root>
    </mxGraphModel>
  </diagram>
</mxfile>
